<?xml version="1.0" encoding="UTF-8" standalone="no"?>
<svg
   xmlns:dc="http://purl.org/dc/elements/1.1/"
   xmlns:cc="http://creativecommons.org/ns#"
   xmlns:rdf="http://www.w3.org/1999/02/22-rdf-syntax-ns#"
   xmlns:svg="http://www.w3.org/2000/svg"
   xmlns="http://www.w3.org/2000/svg"
   xmlns:sodipodi="http://sodipodi.sourceforge.net/DTD/sodipodi-0.dtd"
   xmlns:inkscape="http://www.inkscape.org/namespaces/inkscape"
   height="16"
   width="16"
   id="svg2"
   version="1.1"
   inkscape:version="0.92.2 5c3e80d, 2017-08-06"
   sodipodi:docname="document-new.svg">
  <metadata
     id="metadata9">
    <rdf:RDF>
      <cc:Work
         rdf:about="">
        <dc:format>image/svg+xml</dc:format>
        <dc:type
           rdf:resource="http://purl.org/dc/dcmitype/StillImage" />
        <dc:title></dc:title>
      </cc:Work>
    </rdf:RDF>
  </metadata>
  <defs
     id="defs7" />
  <sodipodi:namedview
     id="namedview1"
     showgrid="true"
     inkscape:zoom="20.85965"
     inkscape:cx="2.6616871"
     inkscape:cy="6.0539976"
     inkscape:window-width="1280"
     inkscape:window-height="742"
     inkscape:window-x="1680"
     inkscape:window-y="274"
     inkscape:window-maximized="1"
     inkscape:current-layer="svg2">
    <inkscape:grid
       type="xygrid"
       id="grid1px"
       empspacing="4" />
    <inkscape:grid
       type="xygrid"
       id="grid1pxdot"
       empspacing="1"
       dotted="true"
       originy="0.5"
       originx="0.5" />
  </sodipodi:namedview>
  <path
     inkscape:connector-curvature="0"
     style="opacity:0.98999999;fill:#000000;fill-opacity:1;fill-rule:nonzero;stroke:none;stroke-width:1.10000002;stroke-linecap:round;stroke-linejoin:round;stroke-miterlimit:4;stroke-dasharray:none;stroke-opacity:1"
     d="M 3.5,0.94921848 A 0.55005501,0.55005501 0 0 0 2.9492188,1.4999997 V 14.5 A 0.55005501,0.55005501 0 0 0 3.5,15.050781 h 9 A 0.55005501,0.55005501 0 0 0 13.050781,14.5 V 5.4999997 A 0.55005501,0.55005501 0 0 0 12.888672,5.1113278 l -4.0000001,-4 A 0.55005501,0.55005501 0 0 0 8.5,0.94921848 Z M 8.4921875,1.9414059 A 0.55005501,0.55005501 0 0 1 9.0507812,2.4999997 V 4.9492185 H 11.5 a 0.5507812,0.5507812 0 1 1 0,1.1015624 h -3 A 0.55005501,0.55005501 0 0 1 7.9492188,5.4999997 v -3 A 0.55005501,0.55005501 0 0 1 8.4921875,1.9414059 Z"
     id="path4139" />
</svg>
