<?xml version="1.0" encoding="UTF-8" standalone="no"?>
<svg
   xmlns:dc="http://purl.org/dc/elements/1.1/"
   xmlns:cc="http://creativecommons.org/ns#"
   xmlns:rdf="http://www.w3.org/1999/02/22-rdf-syntax-ns#"
   xmlns:svg="http://www.w3.org/2000/svg"
   xmlns="http://www.w3.org/2000/svg"
   xmlns:sodipodi="http://sodipodi.sourceforge.net/DTD/sodipodi-0.dtd"
   xmlns:inkscape="http://www.inkscape.org/namespaces/inkscape"
   height="16"
   width="16"
   id="svg2"
   version="1.1"
   inkscape:version="0.92.2 5c3e80d, 2017-08-06"
   sodipodi:docname="document-close.svg">
  <metadata
     id="metadata9">
    <rdf:RDF>
      <cc:Work
         rdf:about="">
        <dc:format>image/svg+xml</dc:format>
        <dc:type
           rdf:resource="http://purl.org/dc/dcmitype/StillImage" />
        <dc:title></dc:title>
      </cc:Work>
    </rdf:RDF>
  </metadata>
  <defs
     id="defs7" />
  <sodipodi:namedview
     id="namedview1"
     showgrid="true"
     inkscape:zoom="29.5"
     inkscape:cx="4.8757183"
     inkscape:cy="2.1638295"
     inkscape:window-width="1680"
     inkscape:window-height="1016"
     inkscape:window-x="0"
     inkscape:window-y="0"
     inkscape:window-maximized="1"
     inkscape:current-layer="svg2">
    <inkscape:grid
       type="xygrid"
       id="grid1px"
       empspacing="4" />
    <inkscape:grid
       type="xygrid"
       id="grid1pxdot"
       empspacing="1"
       dotted="true"
       originy="0.5"
       originx="0.5" />
  </sodipodi:namedview>
  <path
     style="opacity:0.98999999;fill:#000000;fill-opacity:1;fill-rule:nonzero;stroke:none;stroke-width:1.10000002;stroke-linecap:round;stroke-linejoin:round;stroke-miterlimit:4;stroke-dasharray:none;stroke-opacity:1"
     d="M 3.5 0.94921875 A 0.55005501 0.55005501 0 0 0 2.9492188 1.5 L 2.9492188 14.5 A 0.55005501 0.55005501 0 0 0 3.5 15.050781 L 9.4160156 15.050781 A 4 4 0 0 1 8 12 A 4 4 0 0 1 12 8 A 4 4 0 0 1 13.050781 8.1445312 L 13.050781 5.5 A 0.55005501 0.55005501 0 0 0 12.888672 5.1113281 L 8.8886719 1.1113281 A 0.55005501 0.55005501 0 0 0 8.5 0.94921875 L 3.5 0.94921875 z M 8.4921875 1.9414062 A 0.55005501 0.55005501 0 0 1 9.0507812 2.5 L 9.0507812 4.9492188 L 11.5 4.9492188 A 0.5507812 0.5507812 0 1 1 11.5 6.0507812 L 8.5 6.0507812 A 0.55005501 0.55005501 0 0 1 7.9492188 5.5 L 7.9492188 2.5 A 0.55005501 0.55005501 0 0 1 8.4921875 1.9414062 z "
     id="path4139" />
  <path
     style="opacity:0.98999999;fill:#000000;fill-opacity:1;fill-rule:nonzero;stroke:none;stroke-width:1;stroke-linecap:round;stroke-linejoin:round;stroke-miterlimit:4;stroke-dasharray:none;stroke-opacity:1"
     d="M 12 9 A 3 3 0 0 0 9 12 A 3 3 0 0 0 12 15 A 3 3 0 0 0 15 12 A 3 3 0 0 0 12 9 z M 10.494141 9.9941406 A 0.50005 0.50005 0 0 1 10.853516 10.146484 L 12 11.292969 L 13.146484 10.146484 A 0.50005 0.50005 0 0 1 13.490234 9.9960938 A 0.50005 0.50005 0 0 1 13.853516 10.853516 L 12.707031 12 L 13.853516 13.146484 A 0.50005 0.50005 0 1 1 13.146484 13.853516 L 12 12.707031 L 10.853516 13.853516 A 0.50005 0.50005 0 1 1 10.146484 13.146484 L 11.292969 12 L 10.146484 10.853516 A 0.50005 0.50005 0 0 1 10.494141 9.9941406 z "
     id="path4150" />
</svg>
