<?xml version="1.0" encoding="UTF-8" standalone="no"?>
<svg
   xmlns:dc="http://purl.org/dc/elements/1.1/"
   xmlns:cc="http://creativecommons.org/ns#"
   xmlns:rdf="http://www.w3.org/1999/02/22-rdf-syntax-ns#"
   xmlns:svg="http://www.w3.org/2000/svg"
   xmlns="http://www.w3.org/2000/svg"
   xmlns:sodipodi="http://sodipodi.sourceforge.net/DTD/sodipodi-0.dtd"
   xmlns:inkscape="http://www.inkscape.org/namespaces/inkscape"
   height="16"
   width="16"
   version="1.1"
   id="svg5"
   sodipodi:docname="format-text-capitalize.svg"
   inkscape:version="0.92.2 2405546, 2018-03-11">
  <metadata
     id="metadata9">
    <rdf:RDF>
      <cc:Work
         rdf:about="">
        <dc:format>image/svg+xml</dc:format>
        <dc:type
           rdf:resource="http://purl.org/dc/dcmitype/StillImage" />
        <dc:title></dc:title>
      </cc:Work>
    </rdf:RDF>
  </metadata>
  <defs
     id="defs7" />
  <sodipodi:namedview
     id="namedview1"
     showgrid="true"
     inkscape:zoom="20.85965"
     inkscape:cx="23.395634"
     inkscape:cy="15.699846"
     inkscape:window-width="1920"
     inkscape:window-height="1046"
     inkscape:window-x="0"
     inkscape:window-y="0"
     inkscape:window-maximized="1"
     inkscape:current-layer="svg5">
    <inkscape:grid
       type="xygrid"
       id="grid1px"
       empspacing="4" />
    <inkscape:grid
       type="xygrid"
       id="grid1pxdot"
       empspacing="1"
       dotted="true"
       originy="0.5"
       originx="0.5" />
  </sodipodi:namedview>
  <g
     aria-label="Abc"
     style="font-style:normal;font-variant:normal;font-weight:normal;font-stretch:normal;font-size:6.70872021px;line-height:1.25;font-family:Contemporary;-inkscape-font-specification:Contemporary;letter-spacing:0px;word-spacing:0px;fill:#000000;fill-opacity:1;stroke:none;stroke-width:1"
     id="text819">
    <path
       d="M 3.0642483,9.2880742 2.7153948,10.180334 q -0.060378,0.167718 -0.26164,0.167718 H 2.2055321 q -0.060379,0 -0.1073395,-0.04025 -0.040252,-0.04696 -0.040252,-0.10734 0,-0.03354 0.026835,-0.09392 L 3.7284116,5.8733356 Q 3.815625,5.6519479 4.030304,5.6519479 h 0.4025232 q 0.2146791,0 0.3018924,0.2213877 l 1.6369278,4.2332024 q 0.026835,0.06038 0.026835,0.09392 0,0.06038 -0.046961,0.10734 -0.040252,0.04025 -0.1006308,0.04025 H 6.0026677 q -0.2012616,0 -0.26164,-0.167718 L 5.3921742,9.2880742 Z M 5.157369,8.6842894 4.2315656,6.2892763 3.2990535,8.6842894 Z"
       style="stroke-width:1"
       id="path821" />
    <path
       d="m 10.186812,8.382397 q 0.0067,0.067087 0.0067,0.2146791 0,0.1543005 -0.0067,0.2213877 -0.02013,0.4830279 -0.228096,0.8452988 -0.2012616,0.3622704 -0.5434064,0.5568234 -0.335436,0.194553 -0.7513766,0.194553 -0.6977069,0 -1.0398517,-0.4561927 v 0.2079707 q 0,0.0738 -0.05367,0.127465 -0.05367,0.05367 -0.1274657,0.05367 H 7.1947233 q -0.073796,0 -0.1274657,-0.05367 -0.05367,-0.05367 -0.05367,-0.127465 V 5.7659961 q 0,-0.073796 0.05367,-0.1274657 0.05367,-0.05367 0.1274657,-0.05367 h 0.2482226 q 0.073796,0 0.1274657,0.05367 0.05367,0.05367 0.05367,0.1274657 V 7.2486233 Q 7.7716732,7.0540704 8.0266046,6.9266047 8.2882446,6.7924303 8.663933,6.7924303 q 0.4226494,0 0.7580854,0.1945529 0.335436,0.1945529 0.5366976,0.5568238 0.20797,0.3555621 0.228096,0.83859 z M 8.5968458,9.8381893 q 0.4360668,0 0.6909982,-0.2750575 0.2549313,-0.2817663 0.2884749,-0.7715029 0.00671,-0.067087 0.00671,-0.1878441 0,-0.5702412 -0.26164,-0.8989685 -0.2549314,-0.335436 -0.7245418,-0.335436 -0.4226494,0 -0.6775808,0.26164 -0.2549313,0.2616401 -0.2951837,0.7312505 -0.00671,0.067087 -0.00671,0.2616401 0,0.2012616 0.00671,0.2683488 0.033544,0.4360669 0.2951837,0.6909982 0.2683488,0.2549314 0.6775808,0.2549314 z"
       style="stroke-width:1"
       id="path823" />
    <path
       d="m 12.431928,9.8381893 q 0.670872,0 0.905677,-0.5232802 0.04696,-0.1006308 0.09392,-0.1408831 0.04696,-0.040252 0.127466,-0.040252 h 0.201261 q 0.0738,0 0.127466,0.05367 0.05367,0.046961 0.05367,0.1140483 0,0.2280965 -0.181136,0.4897365 -0.181135,0.2616398 -0.52328,0.4427758 -0.342145,0.181135 -0.805046,0.181135 -0.476319,0 -0.825173,-0.201261 -0.348853,-0.201262 -0.536698,-0.5501154 -0.187844,-0.3555622 -0.20797,-0.791629 -0.0067,-0.080505 -0.0067,-0.3086012 0,-0.1610092 0.0067,-0.2280964 0.06038,-0.6842895 0.462902,-1.1136476 0.402523,-0.4293581 1.106939,-0.4293581 0.462901,0 0.798337,0.1811355 0.342145,0.1744267 0.516572,0.4360668 0.181135,0.2549313 0.194553,0.4830278 0.0067,0.073796 -0.05367,0.1274657 -0.05367,0.05367 -0.127466,0.05367 h -0.201261 q -0.0805,0 -0.127466,-0.040252 -0.04696,-0.040252 -0.09392,-0.1408832 -0.234805,-0.5232801 -0.905677,-0.5232801 -0.36898,0 -0.644037,0.2482226 -0.275058,0.2482226 -0.31531,0.7513767 -0.0067,0.073796 -0.0067,0.2415139 0,0.1543006 0.0067,0.2280965 0.04696,0.503154 0.31531,0.7513766 0.275057,0.2482227 0.644037,0.2482227 z"
       style="stroke-width:1"
       id="path825" />
  </g>
</svg>
