<?xml version="1.0" encoding="UTF-8" standalone="no"?>
<svg
   xmlns:dc="http://purl.org/dc/elements/1.1/"
   xmlns:cc="http://creativecommons.org/ns#"
   xmlns:rdf="http://www.w3.org/1999/02/22-rdf-syntax-ns#"
   xmlns:svg="http://www.w3.org/2000/svg"
   xmlns="http://www.w3.org/2000/svg"
   xmlns:sodipodi="http://sodipodi.sourceforge.net/DTD/sodipodi-0.dtd"
   xmlns:inkscape="http://www.inkscape.org/namespaces/inkscape"
   height="16"
   width="16"
   version="1.1"
   id="svg5"
   sodipodi:docname="format-text-lowercase.svg"
   inkscape:version="0.92.2 2405546, 2018-03-11">
  <metadata
     id="metadata9">
    <rdf:RDF>
      <cc:Work
         rdf:about="">
        <dc:format>image/svg+xml</dc:format>
        <dc:type
           rdf:resource="http://purl.org/dc/dcmitype/StillImage" />
        <dc:title></dc:title>
      </cc:Work>
    </rdf:RDF>
  </metadata>
  <defs
     id="defs7" />
  <sodipodi:namedview
     id="namedview1"
     showgrid="true"
     inkscape:zoom="14.75"
     inkscape:cx="9.3331568"
     inkscape:cy="8"
     inkscape:window-width="1920"
     inkscape:window-height="1046"
     inkscape:window-x="0"
     inkscape:window-y="0"
     inkscape:window-maximized="1"
     inkscape:current-layer="svg5">
    <inkscape:grid
       type="xygrid"
       id="grid1px"
       empspacing="4" />
    <inkscape:grid
       type="xygrid"
       id="grid1pxdot"
       empspacing="1"
       dotted="true"
       originy="0.5"
       originx="0.5" />
  </sodipodi:namedview>
  <g
     aria-label="abc"
     style="font-style:normal;font-variant:normal;font-weight:normal;font-stretch:normal;font-size:7.79660988px;line-height:1.25;font-family:Contemporary;-inkscape-font-specification:Contemporary;letter-spacing:0px;word-spacing:0px;fill:#000000;fill-opacity:1;stroke:none;stroke-width:1"
     id="text821">
    <path
       d="M 4.3955055,8.1637285 V 8.0623726 q 0,-0.3820339 -0.2572882,-0.5847457 -0.2494915,-0.2105085 -0.6549152,-0.2105085 -0.3118644,0 -0.4911864,0.1091525 -0.1715254,0.101356 -0.3274576,0.3118644 -0.04678,0.062373 -0.101356,0.085763 -0.054576,0.02339 -0.1481355,0.02339 H 2.1812683 q -0.085763,0 -0.1559322,-0.062373 -0.062373,-0.062373 -0.054576,-0.1481356 0.02339,-0.2338983 0.2261017,-0.46 0.2105084,-0.2338983 0.5535593,-0.3820339 0.3430508,-0.1481356 0.7328813,-0.1481356 0.7250847,0 1.1694915,0.4054237 0.4522034,0.4054238 0.4522034,1.1383051 v 2.3779663 q 0,0.08576 -0.062373,0.148135 -0.062373,0.06237 -0.1481356,0.06237 H 4.6060139 q -0.085763,0 -0.1481356,-0.06237 -0.062373,-0.06237 -0.062373,-0.148135 v -0.319661 q -0.1247458,0.280678 -0.5301695,0.444406 -0.4054237,0.163729 -0.8108474,0.163729 -0.3976271,0 -0.7094915,-0.140339 Q 2.0331327,10.518305 1.8616073,10.268813 1.6978785,10.019322 1.6978785,9.7074573 q 0,-0.5847458 0.4366101,-0.9122034 0.4366102,-0.3352542 1.1616949,-0.4522034 z m 0,0.6237288 -0.92,0.1481356 Q 2.9687259,9.013559 2.6880479,9.192881 q -0.280678,0.1715254 -0.280678,0.4366102 0,0.1949152 0.1793221,0.3508474 0.179322,0.1559324 0.5457627,0.1559324 0.5613559,0 0.9122033,-0.3196612 0.3508475,-0.319661 0.3508475,-0.8342372 z"
       style="stroke-width:1"
       id="path823" />
    <path
       d="m 9.9379205,8.4444065 q 0.0078,0.077966 0.0078,0.2494915 0,0.179322 -0.0078,0.2572881 -0.02339,0.5613559 -0.2650847,0.9823729 -0.2338983,0.421017 -0.6315254,0.647119 -0.3898305,0.226101 -0.8732203,0.226101 -0.8108474,0 -1.2084745,-0.530169 v 0.241695 q 0,0.08576 -0.062373,0.148135 -0.062373,0.06237 -0.1481356,0.06237 H 6.4606325 q -0.085763,0 -0.1481355,-0.06237 -0.062373,-0.06237 -0.062373,-0.148135 V 5.4037286 q 0,-0.085763 0.062373,-0.1481356 0.062373,-0.062373 0.1481355,-0.062373 h 0.2884746 q 0.085763,0 0.1481356,0.062373 0.062373,0.062373 0.062373,0.1481356 V 7.1267794 Q 7.131141,6.9006777 7.4274122,6.7525421 7.7314799,6.5966099 8.1680901,6.5966099 q 0.4911864,0 0.8810169,0.2261017 0.3898305,0.2261017 0.6237288,0.6471186 0.2416949,0.4132204 0.2650847,0.9745763 z M 8.090124,10.136271 q 0.5067796,0 0.8030508,-0.3196612 0.2962712,-0.3274576 0.3352542,-0.8966101 0.0078,-0.077966 0.0078,-0.2183051 0,-0.6627118 -0.3040678,-1.0447457 Q 8.6358867,7.2671184 8.090124,7.2671184 q -0.4911864,0 -0.7874576,0.3040678 -0.2962712,0.3040678 -0.3430508,0.8498304 -0.0078,0.077966 -0.0078,0.3040678 0,0.2338983 0.0078,0.3118644 0.038983,0.5067797 0.3430508,0.8030508 0.3118644,0.2962714 0.7874576,0.2962714 z"
       style="stroke-width:1"
       id="path825" />
    <path
       d="m 12.547105,10.136271 q 0.779661,0 1.052542,-0.6081357 0.05458,-0.1169492 0.109153,-0.1637289 0.05458,-0.04678 0.148135,-0.04678 h 0.233899 q 0.08576,0 0.148135,0.062373 0.06237,0.054576 0.06237,0.1325423 0,0.2650848 -0.210508,0.569153 -0.210509,0.304067 -0.608136,0.514576 -0.397627,0.210508 -0.935593,0.210508 -0.553559,0 -0.958983,-0.233898 -0.405424,-0.233898 -0.623729,-0.639322 -0.218305,-0.4132204 -0.241695,-0.92 -0.0078,-0.093559 -0.0078,-0.3586441 0,-0.1871186 0.0078,-0.2650847 0.07017,-0.7952542 0.537966,-1.2942372 0.467797,-0.4989831 1.286441,-0.4989831 0.537966,0 0.927796,0.2105085 0.397628,0.2027119 0.600339,0.5067796 0.210509,0.2962712 0.226102,0.561356 0.0078,0.085763 -0.06237,0.1481355 -0.06237,0.062373 -0.148135,0.062373 h -0.233899 q -0.09356,0 -0.148135,-0.04678 -0.05458,-0.04678 -0.109153,-0.1637288 -0.272881,-0.6081356 -1.052542,-0.6081356 -0.428814,0 -0.748475,0.2884746 -0.319661,0.2884745 -0.36644,0.8732203 -0.0078,0.085763 -0.0078,0.2806779 0,0.179322 0.0078,0.2650847 0.05458,0.5847458 0.36644,0.8732204 0.319661,0.2884747 0.748475,0.2884747 z"
       style="stroke-width:1"
       id="path827" />
  </g>
</svg>
