<?xml version="1.0" encoding="UTF-8" standalone="no"?>
<svg
   xmlns:dc="http://purl.org/dc/elements/1.1/"
   xmlns:cc="http://creativecommons.org/ns#"
   xmlns:rdf="http://www.w3.org/1999/02/22-rdf-syntax-ns#"
   xmlns:svg="http://www.w3.org/2000/svg"
   xmlns="http://www.w3.org/2000/svg"
   xmlns:sodipodi="http://sodipodi.sourceforge.net/DTD/sodipodi-0.dtd"
   xmlns:inkscape="http://www.inkscape.org/namespaces/inkscape"
   height="16"
   width="16"
   version="1.1"
   id="svg5"
   sodipodi:docname="format-text-capitalize.svg"
   inkscape:version="0.92.2 2405546, 2018-03-11">
  <metadata
     id="metadata9">
    <rdf:RDF>
      <cc:Work
         rdf:about="">
        <dc:format>image/svg+xml</dc:format>
        <dc:type
           rdf:resource="http://purl.org/dc/dcmitype/StillImage" />
        <dc:title></dc:title>
      </cc:Work>
    </rdf:RDF>
  </metadata>
  <defs
     id="defs7" />
  <sodipodi:namedview
     id="namedview1"
     showgrid="true"
     inkscape:zoom="41.7193"
     inkscape:cx="10.409563"
     inkscape:cy="7.3062501"
     inkscape:window-width="1920"
     inkscape:window-height="1046"
     inkscape:window-x="0"
     inkscape:window-y="0"
     inkscape:window-maximized="1"
     inkscape:current-layer="svg5">
    <inkscape:grid
       type="xygrid"
       id="grid1px"
       empspacing="4" />
    <inkscape:grid
       type="xygrid"
       id="grid1pxdot"
       empspacing="1"
       dotted="true"
       originy="0.5"
       originx="0.5" />
  </sodipodi:namedview>
  <g
     aria-label="ABC"
     style="font-style:normal;font-variant:normal;font-weight:normal;font-stretch:normal;font-size:6.94915247px;line-height:1.25;font-family:Contemporary;-inkscape-font-specification:Contemporary;letter-spacing:0px;word-spacing:0px;fill:#000000;fill-opacity:1;stroke:none;stroke-width:1"
     id="text821">
    <path
       d="M 2.2542449,9.3342372 1.892889,10.258474 q -0.062542,0.173729 -0.271017,0.173729 H 1.3647534 q -0.062542,0 -0.1111864,-0.04169 -0.041695,-0.04864 -0.041695,-0.111186 0,-0.03475 0.027797,-0.09729 L 2.942211,5.7971186 Q 3.03255,5.5677966 3.2549229,5.5677966 H 3.671872 q 0.2223729,0 0.3127119,0.229322 l 1.6955932,4.3849154 q 0.027797,0.06254 0.027797,0.09729 0,0.06254 -0.048644,0.111186 -0.041695,0.04169 -0.1042373,0.04169 H 5.2979737 q -0.2084746,0 -0.271017,-0.173729 L 4.6656008,9.3342372 Z M 4.4223805,8.7088135 3.4633974,6.227966 2.4974652,8.7088135 Z"
       style="stroke-width:1"
       id="path823" />
    <path
       d="m 6.421565,5.7554237 q 0,-0.076441 0.055593,-0.1320339 0.055593,-0.055593 0.1320339,-0.055593 H 8.471565 q 0.548983,0 0.8894915,0.2154237 0.3405085,0.2084746 0.4864407,0.5072881 0.1459322,0.2988136 0.1459322,0.5837288 0,0.3891526 -0.1876271,0.6323729 -0.1876272,0.2362712 -0.3683051,0.3474576 0.2918644,0.1945763 0.4725423,0.500339 0.1876275,0.2988136 0.1876275,0.6671186 0,0.361356 -0.1806783,0.6879661 -0.1737288,0.3196606 -0.5211864,0.5211866 -0.3474577,0.201525 -0.8269492,0.201525 h -1.959661 q -0.076441,0 -0.1320339,-0.05559 -0.055593,-0.05559 -0.055593,-0.132034 z m 0.6601695,1.8415254 h 1.320339 q 0.458644,0 0.6949152,-0.180678 0.2362712,-0.1806779 0.2362712,-0.5211864 0,-0.3405085 -0.2362712,-0.5211864 -0.2362712,-0.180678 -0.6949152,-0.180678 h -1.320339 z m 0,2.2098305 h 1.4176271 q 0.4447458,0 0.6879661,-0.2223729 0.2501695,-0.229322 0.2501695,-0.5628814 0,-0.3405084 -0.2362712,-0.5698305 Q 8.9649548,8.2223728 8.4993616,8.2223728 H 7.0817345 Z"
       style="stroke-width:1"
       id="path825" />
    <path
       d="m 11.542873,8.5837287 q 0.02085,0.590678 0.354406,0.9450848 0.340509,0.3474576 0.945085,0.3474576 0.611526,0 0.90339,-0.2640678 0.291864,-0.2640678 0.389153,-0.6810169 0.0139,-0.069492 0.06254,-0.1111865 0.05559,-0.041695 0.118136,-0.041695 h 0.319661 q 0.06254,0 0.104237,0.048644 0.04864,0.041695 0.04864,0.1042373 -0.0139,0.3405084 -0.222373,0.7088135 -0.208475,0.3613561 -0.646271,0.6115251 -0.430848,0.25017 -1.077119,0.25017 -0.583729,0 -1.021525,-0.243221 -0.437797,-0.24322 -0.681017,-0.6671182 -0.236271,-0.4308474 -0.257119,-0.9728813 -0.0069,-0.2084746 -0.0069,-0.6184746 0,-0.41 0.0069,-0.6184745 0.02085,-0.5420339 0.257119,-0.9659322 0.24322,-0.4308475 0.681017,-0.6740678 0.437796,-0.2432204 1.021525,-0.2432204 0.646271,0 1.077119,0.2501695 0.437796,0.2501695 0.646271,0.6184746 0.208475,0.3613559 0.222373,0.7018644 0,0.062542 -0.04864,0.1111864 -0.0417,0.041695 -0.104237,0.041695 h -0.319661 q -0.06254,0 -0.118136,-0.041695 -0.04864,-0.041695 -0.06254,-0.1111864 -0.09729,-0.4169492 -0.389153,-0.6810169 -0.291864,-0.2640678 -0.90339,-0.2640678 -0.604576,0 -0.945085,0.3544067 -0.333559,0.3474577 -0.354406,0.9381356 -0.0069,0.2084746 -0.0069,0.5837288 0,0.3752543 0.0069,0.5837288 z"
       style="stroke-width:1"
       id="path827" />
  </g>
</svg>
