<?xml version="1.0" encoding="UTF-8" standalone="no"?>
<!-- Created with Inkscape (http://www.inkscape.org/) -->

<svg
   xmlns:dc="http://purl.org/dc/elements/1.1/"
   xmlns:cc="http://creativecommons.org/ns#"
   xmlns:rdf="http://www.w3.org/1999/02/22-rdf-syntax-ns#"
   xmlns:svg="http://www.w3.org/2000/svg"
   xmlns="http://www.w3.org/2000/svg"
   xmlns:xlink="http://www.w3.org/1999/xlink"
   xmlns:sodipodi="http://sodipodi.sourceforge.net/DTD/sodipodi-0.dtd"
   xmlns:inkscape="http://www.inkscape.org/namespaces/inkscape"
   width="32"
   height="32"
   viewBox="0 0 8.4666665 8.4666669"
   version="1.1"
   id="svg20249"
   inkscape:version="0.92.4 5da689c313, 2019-01-14"
   sodipodi:docname="theslateIcon.svg">
  <defs
     id="defs20243">
    <linearGradient
       inkscape:collect="always"
       xlink:href="#linearGradient9085"
       id="linearGradient822-63"
       x1="4.6862917"
       y1="35.595917"
       x2="27.313709"
       y2="-3.5959179"
       gradientUnits="userSpaceOnUse"
       gradientTransform="matrix(0.26458333,0,0,0.26458333,75.629408,277.46164)" />
    <linearGradient
       id="linearGradient9085"
       inkscape:collect="always">
      <stop
         id="stop9081"
         offset="0"
         style="stop-color:#6464ff;stop-opacity:1" />
      <stop
         id="stop9083"
         offset="1"
         style="stop-color:#c8c8ff;stop-opacity:1" />
    </linearGradient>
  </defs>
  <sodipodi:namedview
     id="base"
     pagecolor="#ffffff"
     bordercolor="#666666"
     borderopacity="1.0"
     inkscape:pageopacity="0.0"
     inkscape:pageshadow="2"
     inkscape:zoom="15.839192"
     inkscape:cx="18.784164"
     inkscape:cy="14.489877"
     inkscape:document-units="mm"
     inkscape:current-layer="layer1"
     showgrid="true"
     units="px"
     inkscape:window-width="1280"
     inkscape:window-height="742"
     inkscape:window-x="1920"
     inkscape:window-y="304"
     inkscape:window-maximized="1">
    <inkscape:grid
       type="xygrid"
       id="grid20794"
       empspacing="4" />
    <inkscape:grid
       type="xygrid"
       id="grid20796"
       empspacing="1"
       originy="0.13229167"
       originx="0.13229167"
       dotted="true" />
  </sodipodi:namedview>
  <metadata
     id="metadata20246">
    <rdf:RDF>
      <cc:Work
         rdf:about="">
        <dc:format>image/svg+xml</dc:format>
        <dc:type
           rdf:resource="http://purl.org/dc/dcmitype/StillImage" />
        <dc:title></dc:title>
      </cc:Work>
    </rdf:RDF>
  </metadata>
  <g
     inkscape:label="Layer 1"
     inkscape:groupmode="layer"
     id="layer1"
     transform="translate(0,-288.53332)">
    <circle
       style="opacity:1;fill:url(#linearGradient822-63);fill-opacity:1;stroke:none;stroke-width:0.26458332;stroke-linecap:round;stroke-linejoin:round;stroke-miterlimit:4;stroke-dasharray:none;stroke-dashoffset:0;stroke-opacity:1;paint-order:normal"
       id="path814-5"
       cx="79.862671"
       cy="281.69485"
       r="4.2333331"
       transform="rotate(15)"
       inkscape:export-filename="/home/victor/newcontemporary.png"
       inkscape:export-xdpi="2165.5593"
       inkscape:export-ydpi="2165.5593" />
    <path
       style="opacity:1;fill:#000000;fill-opacity:1;stroke:none;stroke-width:0.36035824;stroke-linecap:round;stroke-linejoin:round;stroke-miterlimit:4;stroke-dasharray:none;stroke-dashoffset:0;stroke-opacity:1;paint-order:normal"
       d="m 4.5072462,291.7443 c -0.56633,-0.15174 -1.1444401,0.18203 -1.2961699,0.74835 l -1.0594401,3.95383 a 4.2333333,4.2333333 0 0 0 0.9860298,0.40916 4.2333333,4.2333333 0 0 0 5.1847602,-2.99339 4.2333333,4.2333333 0 0 0 0.14063,-1.05798 z"
       id="rect824-9"
       inkscape:connector-curvature="0"
       inkscape:export-filename="/home/victor/newcontemporary.png"
       inkscape:export-xdpi="2165.5593"
       inkscape:export-ydpi="2165.5593" />
    <g
       aria-label="{}"
       transform="rotate(15)"
       style="font-style:normal;font-variant:normal;font-weight:normal;font-stretch:normal;font-size:3.58718061px;line-height:1.25;font-family:Contemporary;-inkscape-font-specification:Contemporary;letter-spacing:0px;word-spacing:0px;fill:#ffffff;fill-opacity:1;stroke:none;stroke-width:0.08967952"
       id="text881-6">
      <path
         d="m 80.862249,284.55464 q 0.03946,0 0.06816,0.0287 0.0287,0.0287 0.0287,0.0682 v 0.11479 q 0,0.0395 -0.0287,0.0682 -0.0287,0.0287 -0.06816,0.0287 -0.36948,0 -0.581123,-0.27621 -0.208057,-0.27263 -0.208057,-0.74613 0,-0.20089 -0.03946,-0.3085 -0.03587,-0.1112 -0.150661,-0.16501 -0.05381,-0.0251 -0.08609,-0.061 -0.0287,-0.0395 -0.0287,-0.0825 v -0.0825 q 0,-0.0431 0.0287,-0.0789 0.03229,-0.0395 0.08609,-0.0646 0.114789,-0.0538 0.150661,-0.16142 0.03946,-0.10762 0.03946,-0.3085 0,-0.47351 0.208057,-0.74613 0.211643,-0.27622 0.581123,-0.27622 0.03946,0 0.06816,0.0287 0.0287,0.0287 0.0287,0.0682 v 0.11479 q 0,0.0395 -0.0287,0.0682 -0.0287,0.0287 -0.06816,0.0287 -0.233167,0 -0.347957,0.18653 -0.114789,0.18654 -0.114789,0.62059 0,0.20088 -0.06457,0.34795 -0.06457,0.14708 -0.19012,0.21165 0.125551,0.061 0.19012,0.21164 0.06457,0.15066 0.06457,0.35513 0,0.43405 0.114789,0.62058 0.11479,0.18654 0.347957,0.18654 z"
         style="stroke-width:0.08967952"
         id="path825" />
      <path
         d="m 81.955835,283.18075 q -0.125552,-0.0646 -0.190121,-0.21165 -0.06457,-0.14707 -0.06457,-0.34795 0,-0.43405 -0.11479,-0.62059 -0.11479,-0.18653 -0.347957,-0.18653 -0.03946,0 -0.06816,-0.0287 -0.0287,-0.0287 -0.0287,-0.0682 v -0.11479 q 0,-0.0395 0.0287,-0.0682 0.0287,-0.0287 0.06816,-0.0287 0.36948,0 0.577537,0.27622 0.211643,0.27262 0.211643,0.74613 0,0.20088 0.03587,0.3085 0.03946,0.10761 0.154249,0.16142 0.05381,0.0251 0.0825,0.0646 0.03229,0.0359 0.03229,0.0789 v 0.0825 q 0,0.043 -0.03229,0.0825 -0.0287,0.0359 -0.0825,0.061 -0.11479,0.0538 -0.154249,0.16501 -0.03587,0.10761 -0.03587,0.3085 0,0.4735 -0.211643,0.74613 -0.208057,0.27621 -0.577537,0.27621 -0.03946,0 -0.06816,-0.0287 -0.0287,-0.0287 -0.0287,-0.0682 v -0.11479 q 0,-0.0395 0.0287,-0.0682 0.0287,-0.0287 0.06816,-0.0287 0.233167,0 0.347957,-0.18654 0.11479,-0.18653 0.11479,-0.62058 0,-0.20447 0.06457,-0.35513 0.06457,-0.15066 0.190121,-0.21164 z"
         style="stroke-width:0.08967952"
         id="path827" />
    </g>
  </g>
</svg>
