<?xml version="1.0" encoding="UTF-8" standalone="no"?>
<svg
   xmlns:dc="http://purl.org/dc/elements/1.1/"
   xmlns:cc="http://creativecommons.org/ns#"
   xmlns:rdf="http://www.w3.org/1999/02/22-rdf-syntax-ns#"
   xmlns:svg="http://www.w3.org/2000/svg"
   xmlns="http://www.w3.org/2000/svg"
   xmlns:sodipodi="http://sodipodi.sourceforge.net/DTD/sodipodi-0.dtd"
   xmlns:inkscape="http://www.inkscape.org/namespaces/inkscape"
   height="16"
   width="16"
   id="svg2"
   version="1.1"
   inkscape:version="0.92.0 r"
   sodipodi:docname="list-add.svg">
  <metadata
     id="metadata8">
    <rdf:RDF>
      <cc:Work
         rdf:about="">
        <dc:format>image/svg+xml</dc:format>
        <dc:type
           rdf:resource="http://purl.org/dc/dcmitype/StillImage" />
        <dc:title></dc:title>
      </cc:Work>
    </rdf:RDF>
  </metadata>
  <defs
     id="defs6" />
  <sodipodi:namedview
     pagecolor="#ffffff"
     bordercolor="#666666"
     borderopacity="1"
     objecttolerance="10"
     gridtolerance="10"
     guidetolerance="10"
     inkscape:pageopacity="0"
     inkscape:pageshadow="2"
     inkscape:window-width="1680"
     inkscape:window-height="1016"
     id="namedview4"
     showgrid="true"
     inkscape:zoom="29.5"
     inkscape:cx="7.6209112"
     inkscape:cy="5.5353351"
     inkscape:window-x="0"
     inkscape:window-y="0"
     inkscape:window-maximized="1"
     inkscape:current-layer="svg2">
    <inkscape:grid
       type="xygrid"
       id="grid4136"
       empspacing="4" />
    <inkscape:grid
       type="xygrid"
       id="grid4138"
       empspacing="4"
       originy="0.5"
       originx="0.5"
       dotted="true" />
  </sodipodi:namedview>
  <path
     style="opacity:1;fill:#000000;fill-opacity:1;fill-rule:nonzero;stroke:none;stroke-width:1;stroke-linecap:round;stroke-linejoin:round;stroke-miterlimit:4;stroke-dasharray:none;stroke-dashoffset:0;stroke-opacity:1"
     d="M 7.5 0 A 7.5 7.5 0 0 0 0 7.5 A 7.5 7.5 0 0 0 7.5 15 A 7.5 7.5 0 0 0 15 7.5 A 7.5 7.5 0 0 0 7.5 0 z M 7.4921875 0.9921875 A 0.50005 0.50005 0 0 1 8 1.5 L 8 7 L 13.5 7 A 0.50005 0.50005 0 1 1 13.5 8 L 8 8 L 8 13.5 A 0.50005 0.50005 0 1 1 7 13.5 L 7 8 L 1.5 8 A 0.50005 0.50005 0 1 1 1.5 7 L 7 7 L 7 1.5 A 0.50005 0.50005 0 0 1 7.4921875 0.9921875 z "
     id="path815" />
</svg>
