<?xml version="1.0" encoding="UTF-8" standalone="no"?>
<svg
   xmlns:dc="http://purl.org/dc/elements/1.1/"
   xmlns:cc="http://creativecommons.org/ns#"
   xmlns:rdf="http://www.w3.org/1999/02/22-rdf-syntax-ns#"
   xmlns:svg="http://www.w3.org/2000/svg"
   xmlns="http://www.w3.org/2000/svg"
   xmlns:sodipodi="http://sodipodi.sourceforge.net/DTD/sodipodi-0.dtd"
   xmlns:inkscape="http://www.inkscape.org/namespaces/inkscape"
   height="16"
   width="16"
   id="svg2"
   version="1.1"
   inkscape:version="0.91 r13725"
   sodipodi:docname="help-about.svg">
  <metadata
     id="metadata9">
    <rdf:RDF>
      <cc:Work
         rdf:about="">
        <dc:format>image/svg+xml</dc:format>
        <dc:type
           rdf:resource="http://purl.org/dc/dcmitype/StillImage" />
        <dc:title></dc:title>
      </cc:Work>
    </rdf:RDF>
  </metadata>
  <defs
     id="defs7" />
  <sodipodi:namedview
     id="namedview1"
     showgrid="true"
     inkscape:zoom="29.5"
     inkscape:cx="8.7179788"
     inkscape:cy="8.3466945"
     inkscape:window-width="1280"
     inkscape:window-height="766"
     inkscape:window-x="1680"
     inkscape:window-y="250"
     inkscape:window-maximized="1"
     inkscape:current-layer="svg2">
    <inkscape:grid
       type="xygrid"
       id="grid1px"
       empspacing="4" />
    <inkscape:grid
       type="xygrid"
       id="grid1pxdot"
       empspacing="1"
       dotted="true"
       originy="0.5"
       originx="0.5" />
  </sodipodi:namedview>
  <path
     style="opacity:0.98999999;fill:#000000;fill-opacity:1;fill-rule:nonzero;stroke:none;stroke-width:1;stroke-linecap:round;stroke-linejoin:round;stroke-miterlimit:4;stroke-dasharray:none;stroke-dashoffset:0;stroke-opacity:1"
     d="M 8 0 A 8 8 0 0 0 0 8 A 8 8 0 0 0 8 16 A 8 8 0 0 0 16 8 A 8 8 0 0 0 8 0 z M 8 2 A 1.0001 1.0001 0 0 1 8.0703125 2.0019531 A 1.0001 1.0001 0 0 1 8.1699219 2.0117188 A 1.0001 1.0001 0 0 1 8.2675781 2.0332031 A 1.0001 1.0001 0 0 1 8.3632812 2.0625 A 1.0001 1.0001 0 0 1 8.4550781 2.1015625 A 1.0001 1.0001 0 0 1 8.5410156 2.1503906 A 1.0001 1.0001 0 0 1 8.8300781 2.4238281 A 1.0001 1.0001 0 0 1 8.8847656 2.5078125 A 1.0001 1.0001 0 0 1 8.9648438 2.6894531 A 1.0001 1.0001 0 0 1 8.9902344 2.7871094 A 1.0001 1.0001 0 0 1 9.0078125 2.8847656 A 1.0001 1.0001 0 0 1 9.0097656 3.0839844 A 1.0001 1.0001 0 0 1 8.9746094 3.28125 A 1.0001 1.0001 0 0 1 8.9414062 3.375 A 1.0001 1.0001 0 0 1 8.8476562 3.5527344 A 1.0001 1.0001 0 0 1 8.6484375 3.7734375 A 1.0001 1.0001 0 0 1 8.4804688 3.8847656 A 1.0001 1.0001 0 0 1 8.390625 3.9257812 A 1.0001 1.0001 0 0 1 8.296875 3.9589844 A 1.0001 1.0001 0 0 1 8.1992188 3.9824219 A 1.0001 1.0001 0 0 1 8.0996094 3.9960938 A 1.0001 1.0001 0 0 1 8 4 A 1.0001 1.0001 0 0 1 8 2 z M 7.984375 4.9863281 A 1.0001 1.0001 0 0 1 9 6 L 9 14 A 1.0001 1.0001 0 1 1 7 14 L 7 6 A 1.0001 1.0001 0 0 1 7.984375 4.9863281 z "
     id="path4139" />
</svg>
