<?xml version="1.0" encoding="UTF-8" standalone="no"?>
<svg
   width="32"
   height="32"
   viewBox="0 0 8.4666665 8.4666669"
   version="1.1"
   id="svg20249"
   inkscape:version="1.1.2 (0a00cf5339, 2022-02-04, custom)"
   sodipodi:docname="baseicon.svg"
   xmlns:inkscape="http://www.inkscape.org/namespaces/inkscape"
   xmlns:sodipodi="http://sodipodi.sourceforge.net/DTD/sodipodi-0.dtd"
   xmlns="http://www.w3.org/2000/svg"
   xmlns:svg="http://www.w3.org/2000/svg"
   xmlns:rdf="http://www.w3.org/1999/02/22-rdf-syntax-ns#"
   xmlns:cc="http://creativecommons.org/ns#"
   xmlns:dc="http://purl.org/dc/elements/1.1/">
  <defs
     id="defs20243" />
  <sodipodi:namedview
     id="base"
     pagecolor="#ffffff"
     bordercolor="#666666"
     borderopacity="1.0"
     inkscape:pageopacity="0.0"
     inkscape:pageshadow="2"
     inkscape:zoom="15.839192"
     inkscape:cx="16.067739"
     inkscape:cy="15.278557"
     inkscape:document-units="mm"
     inkscape:current-layer="iconlayer"
     showgrid="true"
     units="px"
     inkscape:window-width="2560"
     inkscape:window-height="1403"
     inkscape:window-x="0"
     inkscape:window-y="0"
     inkscape:window-maximized="1"
     inkscape:document-rotation="0"
     inkscape:pagecheckerboard="0">
    <inkscape:grid
       type="xygrid"
       id="grid20794"
       empspacing="4" />
    <inkscape:grid
       type="xygrid"
       id="grid20796"
       empspacing="1"
       originy="0.13229167"
       originx="0.13229167"
       dotted="true" />
  </sodipodi:namedview>
  <metadata
     id="metadata20246">
    <rdf:RDF>
      <cc:Work
         rdf:about="">
        <dc:format>image/svg+xml</dc:format>
        <dc:type
           rdf:resource="http://purl.org/dc/dcmitype/StillImage" />
      </cc:Work>
    </rdf:RDF>
  </metadata>
  <g
     inkscape:label="Base"
     inkscape:groupmode="layer"
     id="layer1"
     transform="translate(0,-288.53332)"
     sodipodi:insensitive="true">
    <path
       style="fill:#646464;fill-opacity:1;stroke:none;stroke-width:0.360358;stroke-linecap:round;stroke-linejoin:round;stroke-miterlimit:4;stroke-dasharray:none;stroke-dashoffset:0;stroke-opacity:1;paint-order:normal"
       d="m 4.5072672,291.74432 c -0.5663401,-0.15175 -1.1444399,0.18202 -1.29618,0.74836 l -1.05944,3.9538 a 4.2333333,4.2333333 0 0 0 0.98603,0.4092 4.2333333,4.2333333 0 0 0 5.1847901,-2.99343 4.2333333,4.2333333 0 0 0 0.1406401,-1.05798 z"
       id="rect824-2-2"
       inkscape:connector-curvature="0"
       inkscape:export-filename="/home/victor/newcontemporary.png"
       inkscape:export-xdpi="2165.5593"
       inkscape:export-ydpi="2165.5593" />
    <path
       id="path814-0-9"
       style="opacity:1;fill:#646464;fill-opacity:1;stroke:none;stroke-width:1;stroke-linecap:round;stroke-linejoin:round;stroke-miterlimit:4;stroke-dasharray:none;stroke-dashoffset:0;stroke-opacity:1;paint-order:normal"
       d="M 15.402344,0.00976563 A 15.999999,15.999999 0 0 0 0.54492188,11.857422 15.999999,15.999999 0 0 0 11.859375,31.453125 15.999999,15.999999 0 0 0 31.455078,20.140625 15.999999,15.999999 0 0 0 20.142578,0.54296875 15.999999,15.999999 0 0 0 15.402344,0.00976563 Z M 16,1 A 15,15 0 0 1 31,16 15,15 0 0 1 16,31 15,15 0 0 1 1,16 15,15 0 0 1 16,1 Z"
       transform="matrix(0.26458333,0,0,0.26458333,0,288.53332)" />
  </g>
  <g
     inkscape:groupmode="layer"
     id="iconlayer"
     inkscape:label="Icon">
    <g
       aria-label="{}"
       transform="rotate(15,1095.8141,-144.26666)"
       id="text881-6"
       style="font-size:3.58718px;line-height:1.25;font-family:Contemporary;-inkscape-font-specification:Contemporary;letter-spacing:0px;word-spacing:0px;fill:#ffffff;stroke-width:0.0896795">
      <path
         d="m 80.862249,284.55464 q 0.03946,0 0.06816,0.0287 0.0287,0.0287 0.0287,0.0682 v 0.11479 q 0,0.0395 -0.0287,0.0682 -0.0287,0.0287 -0.06816,0.0287 -0.36948,0 -0.581123,-0.27621 -0.208057,-0.27263 -0.208057,-0.74613 0,-0.20088 -0.03946,-0.3085 -0.03587,-0.1112 -0.150661,-0.16501 -0.05381,-0.0251 -0.08609,-0.061 -0.0287,-0.0395 -0.0287,-0.0825 v -0.0825 q 0,-0.0431 0.0287,-0.0789 0.03229,-0.0395 0.08609,-0.0646 0.114789,-0.0538 0.150661,-0.16142 0.03946,-0.10762 0.03946,-0.3085 0,-0.47351 0.208057,-0.74613 0.211643,-0.27622 0.581123,-0.27622 0.03946,0 0.06816,0.0287 0.0287,0.0287 0.0287,0.0682 v 0.11479 q 0,0.0395 -0.0287,0.0682 -0.0287,0.0287 -0.06816,0.0287 -0.233167,0 -0.347957,0.18653 -0.11479,0.18654 -0.11479,0.62059 0,0.20088 -0.06457,0.34795 -0.06457,0.14708 -0.19012,0.21165 0.125551,0.061 0.19012,0.21164 0.06457,0.15066 0.06457,0.35513 0,0.43405 0.11479,0.62058 0.11479,0.18654 0.347957,0.18654 z"
         id="path1661" />
      <path
         d="m 81.952748,283.18075 q -0.125551,-0.0646 -0.19012,-0.21165 -0.06457,-0.14707 -0.06457,-0.34795 0,-0.43405 -0.11479,-0.62059 -0.11479,-0.18653 -0.347957,-0.18653 -0.03946,0 -0.06816,-0.0287 -0.0287,-0.0287 -0.0287,-0.0682 v -0.11479 q 0,-0.0395 0.0287,-0.0682 0.0287,-0.0287 0.06816,-0.0287 0.36948,0 0.577536,0.27622 0.211644,0.27262 0.211644,0.74613 0,0.20088 0.03587,0.3085 0.03946,0.10761 0.154248,0.16142 0.05381,0.0251 0.08251,0.0646 0.03228,0.0359 0.03228,0.0789 v 0.0825 q 0,0.043 -0.03228,0.0825 -0.0287,0.0359 -0.08251,0.061 -0.114789,0.0538 -0.154248,0.16501 -0.03587,0.10762 -0.03587,0.3085 0,0.4735 -0.211644,0.74613 -0.208056,0.27621 -0.577536,0.27621 -0.03946,0 -0.06816,-0.0287 -0.0287,-0.0287 -0.0287,-0.0682 v -0.11479 q 0,-0.0395 0.0287,-0.0682 0.0287,-0.0287 0.06816,-0.0287 0.233167,0 0.347957,-0.18654 0.11479,-0.18653 0.11479,-0.62058 0,-0.20447 0.06457,-0.35513 0.06457,-0.15066 0.19012,-0.21164 z"
         id="path1663" />
    </g>
  </g>
</svg>
