<?xml version="1.0" encoding="UTF-8" standalone="no"?>
<svg
   width="32"
   height="32"
   viewBox="0 0 8.4666665 8.4666669"
   version="1.1"
   id="svg20249"
   inkscape:version="1.1.2 (0a00cf5339, 2022-02-04, custom)"
   sodipodi:docname="baseicon-mac.svg"
   xmlns:inkscape="http://www.inkscape.org/namespaces/inkscape"
   xmlns:sodipodi="http://sodipodi.sourceforge.net/DTD/sodipodi-0.dtd"
   xmlns:xlink="http://www.w3.org/1999/xlink"
   xmlns="http://www.w3.org/2000/svg"
   xmlns:svg="http://www.w3.org/2000/svg"
   xmlns:rdf="http://www.w3.org/1999/02/22-rdf-syntax-ns#"
   xmlns:cc="http://creativecommons.org/ns#"
   xmlns:dc="http://purl.org/dc/elements/1.1/">
  <defs
     id="defs20243">
    <inkscape:path-effect
       effect="clone_original"
       linkeditem="#rect824-2-2"
       method="bsplinespiro"
       allow_transforms="false"
       id="path-effect29"
       lpeversion="1" />
    <linearGradient
       inkscape:collect="always"
       id="linearGradient9165">
      <stop
         style="stop-color:#ff641b;stop-opacity:1"
         offset="0"
         id="stop9161" />
      <stop
         style="stop-color:#f3c800;stop-opacity:1"
         offset="1"
         id="stop9163" />
    </linearGradient>
    <clipPath
       clipPathUnits="userSpaceOnUse"
       id="clipPath976">
      <path
         id="path978"
         style="fill:url(#linearGradient980);fill-opacity:1;fill-rule:evenodd;stroke-width:0.999999"
         d="m 16.03125,2.9980724 a 13.000112,13.000112 0 0 0 -0.152345,0.00197 H 9.0000005 C 5.6759725,3.0000378 3,5.676019 3,9.0000379 v 6.9687311 7.031244 c 0,3.324018 2.6759725,6 6.0000005,6 H 23 c 3.324028,0 6.000001,-2.675982 6.000001,-6 V 16.029317 9.0000379 C 29.000001,5.676019 26.324028,3.0000378 23,3.0000378 h -6.867188 a 13.000112,13.000112 0 0 0 -0.101562,-0.00197 z" />
    </clipPath>
    <linearGradient
       inkscape:collect="always"
       xlink:href="#linearGradient9165"
       id="linearGradient980"
       gradientUnits="userSpaceOnUse"
       gradientTransform="translate(0,7.5590552e-5)"
       x1="3"
       y1="29"
       x2="30.5"
       y2="1.5" />
  </defs>
  <sodipodi:namedview
     id="base"
     pagecolor="#ffffff"
     bordercolor="#666666"
     borderopacity="1.0"
     inkscape:pageopacity="0.0"
     inkscape:pageshadow="2"
     inkscape:zoom="19.126673"
     inkscape:cx="11.423837"
     inkscape:cy="17.253393"
     inkscape:document-units="mm"
     inkscape:current-layer="iconlayer"
     showgrid="true"
     units="px"
     inkscape:window-width="3840"
     inkscape:window-height="2091"
     inkscape:window-x="0"
     inkscape:window-y="0"
     inkscape:window-maximized="1"
     inkscape:document-rotation="0"
     inkscape:pagecheckerboard="0">
    <inkscape:grid
       type="xygrid"
       id="grid20794"
       empspacing="4"
       enabled="true" />
    <inkscape:grid
       type="xygrid"
       id="grid20796"
       empspacing="1"
       originy="0.13229167"
       originx="0.13229167"
       dotted="true"
       enabled="true" />
  </sodipodi:namedview>
  <metadata
     id="metadata20246">
    <rdf:RDF>
      <cc:Work
         rdf:about="">
        <dc:format>image/svg+xml</dc:format>
        <dc:type
           rdf:resource="http://purl.org/dc/dcmitype/StillImage" />
      </cc:Work>
    </rdf:RDF>
  </metadata>
  <g
     inkscape:label="Base"
     inkscape:groupmode="layer"
     id="layer1"
     transform="translate(0,-288.53332)"
     sodipodi:insensitive="true">
    <path
       id="rect288"
       style="fill:#646464;fill-opacity:1;fill-rule:evenodd;stroke-width:0.999999"
       d="M 16.03125,2.9980469 A 13.000112,13.000112 0 0 0 15.878906,3 H 9 C 5.6759724,3 3,5.6759811 3,9 V 15.96875 23 c 0,3.324019 2.6759724,6 6,6 h 14 c 3.324028,0 6,-2.675981 6,-6 V 16.029297 9 C 29,5.6759811 26.324028,3 23,3 H 16.132812 A 13.000112,13.000112 0 0 0 16.03125,2.99805 Z m -0.01563,1 h 0.02344 c 0.02344,4.049e-4 0.04687,0.00141 0.07031,0.00195 H 16.121094 23 c 2.787331,0 5,2.212678 5,5 V 16.029297 23 c 0,2.787322 -2.212669,5 -5,5 H 9 C 6.2126697,28 4,25.787322 4,23 V 15.96875 9 C 4,6.2126781 6.2126697,4 9,4 h 6.888672 0.0098 c 0.03906,-7.297e-4 0.07812,-0.0016 0.117187,-0.00195 z"
       transform="matrix(0.26458333,0,0,0.26458333,0,288.53332)" />
    <path
       id="rect824-2-2-2"
       style="fill:#646464;fill-opacity:1;stroke:none;stroke-width:0.292793;stroke-linecap:round;stroke-linejoin:round;stroke-miterlimit:4;stroke-dasharray:none;stroke-dashoffset:0;stroke-opacity:1;paint-order:normal"
       d="m 4.4609887,291.93795 c -0.057439,-0.0157 -0.1147587,-0.0256 -0.1718626,-0.0295 l -4.991e-4,-1.4e-4 c -0.3997524,-0.0265 -0.7744139,0.22925 -0.8844453,0.63131 l -0.8780438,3.20902 -0.122781,0.45823 1.8333886,1.3e-4 -0.002,-5.4e-4 1.8510644,5e-5 c 0.8794805,1e-5 1.5873292,-0.70784 1.5873287,-1.58732 l 3.088e-4,-1.31493 -5.725e-4,-0.49503 -1.2463925,-0.33396 z m 1.9654972,0.53736 0.00267,-0.01 -4.992e-4,-1.3e-4 z" />
    <path
       id="path1083"
       style="fill:none;fill-opacity:1;fill-rule:evenodd;stroke-width:0.999999"
       d="M 16.03125,2.9980469 A 13.000112,13.000112 45 0 0 15.878906,3 H 9 C 5.6759724,3 3,5.6759811 3,9 V 15.96875 23 c 0,3.324019 2.6759724,6 6,6 h 14 c 3.324028,0 6,-2.675981 6,-6 V 16.029297 9 C 29,5.6759811 26.324028,3 23,3 H 16.132812 A 13.000112,13.000112 45 0 0 16.03125,2.99805 Z"
       transform="matrix(0.26458333,0,0,0.26458333,0,288.53332)" />
  </g>
  <g
     inkscape:groupmode="layer"
     id="iconlayer"
     inkscape:label="Icon">
    <g
       aria-label="{}"
       transform="matrix(0.78481483,0.2102905,-0.2102905,0.78481483,0.79375022,-233.63961)"
       id="text881-6"
       style="font-size:3.58718px;line-height:1.25;font-family:Contemporary;-inkscape-font-specification:Contemporary;letter-spacing:0px;word-spacing:0px;fill:#ffffff;stroke-width:0.110375">
      <path
         d="m 80.862249,284.55464 q 0.03946,0 0.06816,0.0287 0.0287,0.0287 0.0287,0.0682 v 0.11479 q 0,0.0395 -0.0287,0.0682 -0.0287,0.0287 -0.06816,0.0287 -0.36948,0 -0.581123,-0.27621 -0.208057,-0.27263 -0.208057,-0.74613 0,-0.20088 -0.03946,-0.3085 -0.03587,-0.1112 -0.150661,-0.16501 -0.05381,-0.0251 -0.08609,-0.061 -0.0287,-0.0395 -0.0287,-0.0825 v -0.0825 q 0,-0.0431 0.0287,-0.0789 0.03229,-0.0395 0.08609,-0.0646 0.114789,-0.0538 0.150661,-0.16142 0.03946,-0.10762 0.03946,-0.3085 0,-0.47351 0.208057,-0.74613 0.211643,-0.27622 0.581123,-0.27622 0.03946,0 0.06816,0.0287 0.0287,0.0287 0.0287,0.0682 v 0.11479 q 0,0.0395 -0.0287,0.0682 -0.0287,0.0287 -0.06816,0.0287 -0.233167,0 -0.347957,0.18653 -0.11479,0.18654 -0.11479,0.62059 0,0.20088 -0.06457,0.34795 -0.06457,0.14708 -0.19012,0.21165 0.125551,0.061 0.19012,0.21164 0.06457,0.15066 0.06457,0.35513 0,0.43405 0.11479,0.62058 0.11479,0.18654 0.347957,0.18654 z"
         id="path1661"
         style="stroke-width:0.110375" />
      <path
         d="m 81.952748,283.18075 q -0.125551,-0.0646 -0.19012,-0.21165 -0.06457,-0.14707 -0.06457,-0.34795 0,-0.43405 -0.11479,-0.62059 -0.11479,-0.18653 -0.347957,-0.18653 -0.03946,0 -0.06816,-0.0287 -0.0287,-0.0287 -0.0287,-0.0682 v -0.11479 q 0,-0.0395 0.0287,-0.0682 0.0287,-0.0287 0.06816,-0.0287 0.36948,0 0.577536,0.27622 0.211644,0.27262 0.211644,0.74613 0,0.20088 0.03587,0.3085 0.03946,0.10761 0.154248,0.16142 0.05381,0.0251 0.08251,0.0646 0.03228,0.0359 0.03228,0.0789 v 0.0825 q 0,0.043 -0.03228,0.0825 -0.0287,0.0359 -0.08251,0.061 -0.114789,0.0538 -0.154248,0.16501 -0.03587,0.10762 -0.03587,0.3085 0,0.4735 -0.211644,0.74613 -0.208056,0.27621 -0.577536,0.27621 -0.03946,0 -0.06816,-0.0287 -0.0287,-0.0287 -0.0287,-0.0682 v -0.11479 q 0,-0.0395 0.0287,-0.0682 0.0287,-0.0287 0.06816,-0.0287 0.233167,0 0.347957,-0.18654 0.11479,-0.18653 0.11479,-0.62058 0,-0.20447 0.06457,-0.35513 0.06457,-0.15066 0.19012,-0.21164 z"
         id="path1663"
         style="stroke-width:0.110375" />
    </g>
  </g>
</svg>
