<?xml version="1.0" encoding="UTF-8" standalone="no"?>
<svg
   width="32"
   height="32"
   viewBox="0 0 8.4666665 8.4666669"
   version="1.1"
   id="svg20249"
   inkscape:version="1.2.2 (b0a84865, 2022-12-01)"
   sodipodi:docname="baseicon-mac.svg"
   xmlns:inkscape="http://www.inkscape.org/namespaces/inkscape"
   xmlns:sodipodi="http://sodipodi.sourceforge.net/DTD/sodipodi-0.dtd"
   xmlns:xlink="http://www.w3.org/1999/xlink"
   xmlns="http://www.w3.org/2000/svg"
   xmlns:svg="http://www.w3.org/2000/svg"
   xmlns:rdf="http://www.w3.org/1999/02/22-rdf-syntax-ns#"
   xmlns:cc="http://creativecommons.org/ns#"
   xmlns:dc="http://purl.org/dc/elements/1.1/">
  <defs
     id="defs20243">
    <inkscape:path-effect
       effect="clone_original"
       linkeditem="#rect824-2-2"
       method="bsplinespiro"
       allow_transforms="false"
       id="path-effect29"
       lpeversion="1" />
    <linearGradient
       inkscape:collect="always"
       id="linearGradient9165">
      <stop
         style="stop-color:#ff641b;stop-opacity:1"
         offset="0"
         id="stop9161" />
      <stop
         style="stop-color:#f3c800;stop-opacity:1"
         offset="1"
         id="stop9163" />
    </linearGradient>
    <clipPath
       clipPathUnits="userSpaceOnUse"
       id="clipPath976">
      <path
         id="path978"
         style="fill:url(#linearGradient980);fill-opacity:1;fill-rule:evenodd;stroke-width:0.999999"
         d="m 16.03125,2.9980724 a 13.000112,13.000112 0 0 0 -0.152345,0.00197 H 9.0000005 C 5.6759725,3.0000378 3,5.676019 3,9.0000379 v 6.9687311 7.031244 c 0,3.324018 2.6759725,6 6.0000005,6 H 23 c 3.324028,0 6.000001,-2.675982 6.000001,-6 V 16.029317 9.0000379 C 29.000001,5.676019 26.324028,3.0000378 23,3.0000378 h -6.867188 a 13.000112,13.000112 0 0 0 -0.101562,-0.00197 z" />
    </clipPath>
    <linearGradient
       inkscape:collect="always"
       xlink:href="#linearGradient9165"
       id="linearGradient980"
       gradientUnits="userSpaceOnUse"
       gradientTransform="translate(0,7.5590552e-5)"
       x1="3"
       y1="29"
       x2="30.5"
       y2="1.5" />
  </defs>
  <sodipodi:namedview
     id="base"
     pagecolor="#ffffff"
     bordercolor="#666666"
     borderopacity="1.0"
     inkscape:pageopacity="0.0"
     inkscape:pageshadow="2"
     inkscape:zoom="32.527078"
     inkscape:cx="21.76648"
     inkscape:cy="23.488123"
     inkscape:document-units="mm"
     inkscape:current-layer="iconlayer"
     showgrid="true"
     units="px"
     inkscape:window-width="1680"
     inkscape:window-height="1050"
     inkscape:window-x="0"
     inkscape:window-y="0"
     inkscape:window-maximized="0"
     inkscape:document-rotation="0"
     inkscape:pagecheckerboard="0"
     inkscape:showpageshadow="0"
     inkscape:deskcolor="#d1d1d1">
    <inkscape:grid
       type="xygrid"
       id="grid20794"
       empspacing="4"
       enabled="true" />
    <inkscape:grid
       type="xygrid"
       id="grid20796"
       empspacing="1"
       originy="0.13229167"
       originx="0.13229167"
       dotted="true"
       enabled="true" />
  </sodipodi:namedview>
  <metadata
     id="metadata20246">
    <rdf:RDF>
      <cc:Work
         rdf:about="">
        <dc:format>image/svg+xml</dc:format>
        <dc:type
           rdf:resource="http://purl.org/dc/dcmitype/StillImage" />
      </cc:Work>
    </rdf:RDF>
  </metadata>
  <g
     inkscape:label="Base"
     inkscape:groupmode="layer"
     id="layer1"
     transform="translate(0,-288.53332)"
     sodipodi:insensitive="true">
    <path
       id="rect288"
       style="fill:#646464;fill-opacity:1;fill-rule:evenodd;stroke-width:0.999999"
       d="M 16.03125,2.9980469 A 13.000112,13.000112 0 0 0 15.878906,3 H 9 C 5.6759724,3 3,5.6759811 3,9 V 15.96875 23 c 0,3.324019 2.6759724,6 6,6 h 14 c 3.324028,0 6,-2.675981 6,-6 V 16.029297 9 C 29,5.6759811 26.324028,3 23,3 H 16.132812 A 13.000112,13.000112 0 0 0 16.03125,2.99805 Z m -0.01563,1 h 0.02344 c 0.02344,4.049e-4 0.04687,0.00141 0.07031,0.00195 H 16.121094 23 c 2.787331,0 5,2.212678 5,5 V 16.029297 23 c 0,2.787322 -2.212669,5 -5,5 H 9 C 6.2126697,28 4,25.787322 4,23 V 15.96875 9 C 4,6.2126781 6.2126697,4 9,4 h 6.888672 0.0098 c 0.03906,-7.297e-4 0.07812,-0.0016 0.117187,-0.00195 z"
       transform="matrix(0.26458333,0,0,0.26458333,0,288.53332)" />
    <path
       id="rect824-2-2-2"
       style="fill:#646464;fill-opacity:1;stroke:none;stroke-width:0.292793;stroke-linecap:round;stroke-linejoin:round;stroke-miterlimit:4;stroke-dasharray:none;stroke-dashoffset:0;stroke-opacity:1;paint-order:normal"
       d="m 4.4609887,291.93795 c -0.057439,-0.0157 -0.1147587,-0.0256 -0.1718626,-0.0295 l -4.991e-4,-1.4e-4 c -0.3997524,-0.0265 -0.7744139,0.22925 -0.8844453,0.63131 l -0.8780438,3.20902 -0.122781,0.45823 1.8333886,1.3e-4 -0.002,-5.4e-4 1.8510644,5e-5 c 0.8794805,1e-5 1.5873292,-0.70784 1.5873287,-1.58732 l 3.088e-4,-1.31493 -5.725e-4,-0.49503 -1.2463925,-0.33396 z m 1.9654972,0.53736 0.00267,-0.01 -4.992e-4,-1.3e-4 z" />
    <path
       id="path1083"
       style="fill:none;fill-opacity:1;fill-rule:evenodd;stroke-width:0.999999"
       d="M 16.03125,2.9980469 A 13.000112,13.000112 45 0 0 15.878906,3 H 9 C 5.6759724,3 3,5.6759811 3,9 V 15.96875 23 c 0,3.324019 2.6759724,6 6,6 h 14 c 3.324028,0 6,-2.675981 6,-6 V 16.029297 9 C 29,5.6759811 26.324028,3 23,3 H 16.132812 A 13.000112,13.000112 45 0 0 16.03125,2.99805 Z"
       transform="matrix(0.26458333,0,0,0.26458333,0,288.53332)" />
  </g>
  <g
     inkscape:groupmode="layer"
     id="iconlayer"
     inkscape:label="Icon">
    <g
       id="g6690"
       transform="matrix(-0.81989663,0,0,-0.81989663,8.7979225,10.368741)">
      <path
         id="path6669"
         style="color:#000000;opacity:0.5;fill:#ffffff;stroke-linecap:round;stroke-linejoin:round;-inkscape-stroke:none"
         d="M 5.0958312,4.3736378 C 4.8150529,4.2984035 4.5229712,4.467037 4.447737,4.7478152 L 4.3106448,5.2594501 a 0.1322915,0.1322915 0 0 0 0.09391,0.1626564 0.1322915,0.1322915 0 0 0 0.1626565,-0.09391 L 4.7028319,4.8220526 a 0.1322915,0.1322915 0 0 0 0.00147,-0.00549 C 4.7425276,4.6739065 4.8844237,4.5919828 5.0270833,4.6302083 a 0.1322915,0.1322915 0 0 0 0.1626576,-0.093914 0.1322915,0.1322915 0 0 0 -0.09391,-0.1626565 z" />
      <path
         style="fill:none;stroke:#ffffff;stroke-width:0.264583;stroke-linecap:round;stroke-linejoin:round;stroke-dasharray:none;stroke-opacity:1"
         id="path6671"
         sodipodi:type="arc"
         sodipodi:cx="-5.2614589"
         sodipodi:cy="-3.9650784"
         sodipodi:rx="0.39687499"
         sodipodi:ry="0.39687499"
         sodipodi:start="3.1415927"
         sodipodi:end="4.712389"
         sodipodi:open="true"
         sodipodi:arc-type="arc"
         d="m -5.6583339,-3.9650784 a 0.39687499,0.39687499 0 0 1 0.396875,-0.3968749"
         transform="rotate(-165)" />
      <path
         style="fill:none;stroke:#ffffff;stroke-width:0.264583;stroke-linecap:round;stroke-linejoin:round;stroke-dasharray:none;stroke-opacity:1"
         id="path6673"
         sodipodi:type="arc"
         sodipodi:cx="-5.2614594"
         sodipodi:cy="4.7588286"
         sodipodi:rx="0.39687499"
         sodipodi:ry="0.39687499"
         sodipodi:start="3.1415927"
         sodipodi:end="4.712389"
         sodipodi:open="true"
         sodipodi:arc-type="arc"
         d="m -5.6583343,4.7588286 a 0.39687499,0.39687499 0 0 1 0.3968749,-0.396875"
         transform="matrix(-0.96592583,-0.25881905,-0.25881905,0.96592583,0,0)" />
      <path
         style="fill:none;stroke:#ffffff;stroke-width:0.264583;stroke-linecap:round;stroke-linejoin:round;stroke-dasharray:none;stroke-opacity:1"
         id="path6675"
         sodipodi:type="arc"
         sodipodi:cx="6.0552092"
         sodipodi:cy="-5.2879949"
         sodipodi:rx="0.39687499"
         sodipodi:ry="0.39687499"
         sodipodi:start="3.1415927"
         sodipodi:end="4.712389"
         sodipodi:open="true"
         sodipodi:arc-type="arc"
         d="m 5.6583342,-5.2879949 a 0.39687499,0.39687499 0 0 1 0.396875,-0.396875"
         transform="matrix(0.96592583,0.25881905,0.25881905,-0.96592583,0,0)" />
      <path
         style="opacity:0.5;fill:none;stroke:#ffffff;stroke-width:0.264583;stroke-linecap:round;stroke-linejoin:miter;stroke-dasharray:none;stroke-opacity:1"
         d="M 4.5762517,4.7833206 4.4392933,5.2944563"
         id="path6677"
         sodipodi:nodetypes="cc" />
      <path
         style="fill:none;stroke:#ffffff;stroke-width:0.264583;stroke-linecap:round;stroke-linejoin:miter;stroke-dasharray:none;stroke-opacity:1"
         d="M 4.2338557,6.06116 4.0968973,6.5722957"
         id="path6679"
         sodipodi:nodetypes="cc" />
      <path
         style="fill:none;stroke:#ffffff;stroke-width:0.264583;stroke-linecap:round;stroke-linejoin:miter;stroke-dasharray:none;stroke-opacity:1"
         d="m 4.4735329,5.1666724 -0.03424,0.1277839"
         id="path6681"
         sodipodi:nodetypes="cc" />
    </g>
    <g
       id="g6699"
       transform="matrix(0.79195933,0.21220486,-0.21220486,0.79195933,2.0198933,-0.11405151)">
      <path
         id="path2098-6"
         style="color:#000000;opacity:0.5;fill:#ffffff;stroke-linecap:round;stroke-linejoin:round;-inkscape-stroke:none"
         d="M 4.7100008,4.3925333 C 4.4193177,4.3925333 4.180834,4.631017 4.1808341,4.9217 V 5.4513834 A 0.1322915,0.1322915 45 0 0 4.3136427,5.5841917 0.1322915,0.1322915 45 0 0 4.4464511,5.4513831 l -2e-7,-0.5239987 a 0.1322915,0.1322915 45 0 0 -1e-6,-0.00568 C 4.446451,4.7740122 4.5623087,4.6581546 4.7100007,4.6581546 A 0.1322915,0.1322915 45 0 0 4.8428092,4.5253418 0.1322915,0.1322915 45 0 0 4.7100008,4.3925333 Z" />
      <path
         style="fill:none;stroke:#ffffff;stroke-width:0.264583;stroke-linecap:round;stroke-linejoin:round;stroke-dasharray:none;stroke-opacity:1"
         id="path1201-0"
         sodipodi:type="arc"
         sodipodi:cx="-3.917284"
         sodipodi:cy="-5.4519"
         sodipodi:rx="0.39687499"
         sodipodi:ry="0.39687499"
         sodipodi:start="3.1415927"
         sodipodi:end="4.712389"
         sodipodi:open="true"
         sodipodi:arc-type="arc"
         d="m -4.314159,-5.4519 a 0.39687499,0.39687499 0 0 1 0.396875,-0.396875"
         transform="scale(-1)" />
      <path
         style="fill:none;stroke:#ffffff;stroke-width:0.264583;stroke-linecap:round;stroke-linejoin:round;stroke-dasharray:none;stroke-opacity:1"
         id="path1203-0"
         sodipodi:type="arc"
         sodipodi:cx="-3.9172845"
         sodipodi:cy="6.2456503"
         sodipodi:rx="0.39687499"
         sodipodi:ry="0.39687499"
         sodipodi:start="3.1415927"
         sodipodi:end="4.712389"
         sodipodi:open="true"
         sodipodi:arc-type="arc"
         d="m -4.3141595,6.2456503 a 0.39687499,0.39687499 0 0 1 0.396875,-0.396875"
         transform="scale(-1,1)" />
      <path
         style="fill:none;stroke:#ffffff;stroke-width:0.264583;stroke-linecap:round;stroke-linejoin:round;stroke-dasharray:none;stroke-opacity:1"
         id="path1205-9"
         sodipodi:type="arc"
         sodipodi:cx="4.7110343"
         sodipodi:cy="-6.7748165"
         sodipodi:rx="0.39687499"
         sodipodi:ry="0.39687499"
         sodipodi:start="3.1415927"
         sodipodi:end="4.712389"
         sodipodi:open="true"
         sodipodi:arc-type="arc"
         d="m 4.3141593,-6.7748165 a 0.39687499,0.39687499 0 0 1 0.396875,-0.396875"
         transform="scale(1,-1)" />
      <path
         style="opacity:0.5;fill:none;stroke:#ffffff;stroke-width:0.264583;stroke-linecap:round;stroke-linejoin:miter;stroke-dasharray:none;stroke-opacity:1"
         d="M 4.3141592,4.9227335 V 5.4519001"
         id="path1270-5"
         sodipodi:nodetypes="cc" />
      <path
         style="fill:none;stroke:#ffffff;stroke-width:0.264583;stroke-linecap:round;stroke-linejoin:miter;stroke-dasharray:none;stroke-opacity:1"
         d="M 4.3141593,6.2456502 V 6.7748168"
         id="path1272-6"
         sodipodi:nodetypes="cc" />
      <path
         style="fill:none;stroke:#ffffff;stroke-width:0.264583;stroke-linecap:round;stroke-linejoin:miter;stroke-dasharray:none;stroke-opacity:1"
         d="m 4.3141592,5.3196085 -4e-7,0.1322917"
         id="path2096-2"
         sodipodi:nodetypes="cc" />
    </g>
  </g>
</svg>
